<?xml version="1.0" encoding="UTF-8"?>
<svg xmlns="http://www.w3.org/2000/svg" width="1200" height="750" viewBox="0 0 1200 750">
  <defs>
    <filter id="paperTexture" x="-10%" y="-10%" width="120%" height="120%">
      <feTurbulence type="fractalNoise" baseFrequency="0.9" numOctaves="3" seed="7" result="noise"/>
      <feColorMatrix type="matrix" values="
        1 0 0 0 0
        0 1 0 0 0
        0 0 1 0 0
        0 0 0 0.12 0" in="noise" result="noiseAlpha"/>
      <feComposite in="noiseAlpha" in2="SourceGraphic" operator="over"/>
    </filter>

    <filter id="wobble" x="-10%" y="-10%" width="120%" height="120%">
      <feTurbulence type="turbulence" baseFrequency="0.015" numOctaves="1" seed="3" result="t"/>
      <feDisplacementMap in="SourceGraphic" in2="t" scale="3" xChannelSelector="R" yChannelSelector="G"/>
    </filter>

    <style><![CDATA[
      :root { --ink:#1f1f1f; --ink2:#2c2c2c; --napkin:#f6f0e3; --hl:#fff2a8; --blue:#3a5f7d; }
      .ink { stroke: var(--ink); fill: none; stroke-width: 4; stroke-linecap: round; stroke-linejoin: round; }
      .inkThin { stroke: var(--ink2); fill: none; stroke-width: 3; stroke-linecap: round; stroke-linejoin: round; }
      .box { fill: rgba(255,255,255,0.35); stroke: var(--ink); stroke-width: 4; rx: 22; }
      .title { font: 700 44px ui-rounded, system-ui, -apple-system, Segoe UI, Arial, sans-serif; fill: var(--ink); }
      .subtitle { font: 600 22px ui-rounded, system-ui, -apple-system, Segoe UI, Arial, sans-serif; fill: var(--blue); }
      .label { font: 700 20px ui-rounded, system-ui, -apple-system, Segoe UI, Arial, sans-serif; fill: var(--ink); }
      .small { font: 600 16px ui-rounded, system-ui, -apple-system, Segoe UI, Arial, sans-serif; fill: var(--ink2); }
      .stepNo { font: 800 24px ui-rounded, system-ui, -apple-system, Segoe UI, Arial, sans-serif; fill: var(--blue); }
      .highlight { fill: var(--hl); opacity: 0; }
      @keyframes pulse {
        0% { opacity: 0; transform: scale(0.98); }
        5% { opacity: 0.9; transform: scale(1.00); }
        14% { opacity: 0.0; transform: scale(0.98); }
        100% { opacity: 0; transform: scale(0.98); }
      }
      .p1 { animation: pulse 7s linear infinite; animation-delay: 0s; transform-origin: center; }
      .p2 { animation: pulse 7s linear infinite; animation-delay: 1s; transform-origin: center; }
      .p3 { animation: pulse 7s linear infinite; animation-delay: 2s; transform-origin: center; }
      .p4 { animation: pulse 7s linear infinite; animation-delay: 3s; transform-origin: center; }
      .p5 { animation: pulse 7s linear infinite; animation-delay: 4s; transform-origin: center; }
      .p6 { animation: pulse 7s linear infinite; animation-delay: 5s; transform-origin: center; }
      .p7 { animation: pulse 7s linear infinite; animation-delay: 6s; transform-origin: center; }
    ]]></style>
  </defs>

  <!-- Napkin background -->
  <rect x="0" y="0" width="1200" height="750" fill="#f6f0e3"/>
  <g filter="url(#paperTexture)">
    <rect x="20" y="20" width="1160" height="710" rx="34" fill="rgba(255,255,255,0.18)"/>
  </g>

  <!-- Scribbly border -->
  <g opacity="0.9" filter="url(#wobble)">
    <path class="inkThin" d="M60,56 C210,22 390,24 560,40 C760,60 980,44 1140,76"/>
    <path class="inkThin" d="M60,690 C240,724 420,726 590,710 C780,692 970,712 1140,676"/>
    <path class="inkThin" d="M52,80 C26,220 30,360 44,520 C58,650 38,680 74,700"/>
    <path class="inkThin" d="M1146,82 C1172,232 1168,372 1158,530 C1148,660 1166,682 1128,700"/>
  </g>

  <!-- Title -->
  <text x="70" y="110" class="title">ATHENA: Build + Keep Receipts</text>
  <text x="70" y="145" class="subtitle">A loop that helps you remember what happened</text>

  <!-- Loop path (for the moving dot) -->
  <path id="loopPath" d="M600,390
    C600,245 720,170 845,200
    C980,235 1035,360 995,475
    C955,590 815,635 705,585
    C620,545 570,485 505,455
    C420,415 300,430 250,520
    C190,628 295,695 395,660
    C500,622 540,560 600,520
    C660,480 600,445 600,390 Z" fill="none" stroke="rgba(31,31,31,0.25)" stroke-width="10" stroke-linecap="round"/>

  <!-- Moving dot -->
  <circle r="10" fill="#e23b2e" stroke="#1f1f1f" stroke-width="3">
    <animateMotion dur="7s" repeatCount="indefinite" rotate="auto">
      <mpath href="#loopPath"/>
    </animateMotion>
  </circle>

  <!-- Steps (simple, kid-friendly) -->
  <!-- Step 1 -->
  <g>
    <ellipse class="highlight p1" cx="280" cy="260" rx="155" ry="62"/>
    <rect class="box" x="150" y="215" width="260" height="92"/>
    <text x="175" y="252" class="stepNo">1</text>
    <text x="210" y="252" class="label">You ask</text>
    <text x="210" y="277" class="small">Write the request</text>
  </g>

  <!-- Step 2 -->
  <g>
    <ellipse class="highlight p2" cx="560" cy="230" rx="175" ry="62"/>
    <rect class="box" x="420" y="185" width="280" height="92"/>
    <text x="445" y="222" class="stepNo">2</text>
    <text x="480" y="222" class="label">Keep receipts</text>
    <text x="480" y="247" class="small">requests + notes</text>
  </g>

  <!-- Step 3 -->
  <g>
    <ellipse class="highlight p3" cx="910" cy="260" rx="175" ry="62"/>
    <rect class="box" x="770" y="215" width="280" height="92"/>
    <text x="795" y="252" class="stepNo">3</text>
    <text x="830" y="252" class="label">Decide</text>
    <text x="830" y="277" class="small">tradeoffs + rules</text>
  </g>

  <!-- Step 4 -->
  <g>
    <ellipse class="highlight p4" cx="980" cy="445" rx="155" ry="62"/>
    <rect class="box" x="850" y="400" width="260" height="92"/>
    <text x="875" y="437" class="stepNo">4</text>
    <text x="910" y="437" class="label">Plan</text>
    <text x="910" y="462" class="small">what “done” means</text>
  </g>

  <!-- Step 5 -->
  <g>
    <ellipse class="highlight p5" cx="760" cy="585" rx="175" ry="62"/>
    <rect class="box" x="620" y="540" width="280" height="92"/>
    <text x="645" y="577" class="stepNo">5</text>
    <text x="680" y="577" class="label">Do 1 tiny thing</text>
    <text x="680" y="602" class="small">only one task at a time</text>
  </g>

  <!-- Step 6 -->
  <g>
    <ellipse class="highlight p6" cx="390" cy="610" rx="175" ry="62"/>
    <rect class="box" x="250" y="565" width="280" height="92"/>
    <text x="275" y="602" class="stepNo">6</text>
    <text x="310" y="602" class="label">Check it works</text>
    <text x="310" y="627" class="small">tests / proof</text>
  </g>

  <!-- Step 7 -->
  <g>
    <ellipse class="highlight p7" cx="250" cy="430" rx="155" ry="62"/>
    <rect class="box" x="120" y="385" width="260" height="92"/>
    <text x="145" y="422" class="stepNo">7</text>
    <text x="180" y="422" class="label">Write what happened</text>
    <text x="180" y="447" class="small">progress + evidence</text>
  </g>

  <!-- Tiny legend -->
  <g opacity="0.95">
    <path class="inkThin" d="M70,680 C160,650 260,650 350,680"/>
    <text x="70" y="705" class="small">Loop = ask, build, check, and keep receipts so you can come back later.</text>
  </g>
</svg>
